PathFileType	4	(X/Y/Z)	pose_F01_0-96.trc
DataRate	CameraRate	NumFrames	NumMarkers	Units	OrigDataRate	OrigDataStartFrame	OrigNumFrames
30	30	10	21	m	30	0	96
Frame#	Time	CHip			RHip			RKnee			RAnkle			RBigToe			RSmallToe			RHeel			LHip			LKnee			LAnkle			LBigToe			LSmallToe			LHeel			Neck			Nose			RShoulder			RElbow			RWrist			LShoulder			LElbow			LWrist			
		X1	Y1	Z1	X2	Y2	Z2	X3	Y3	Z3	X4	Y4	Z4	X5	Y5	Z5	X6	Y6	Z6	X7	Y7	Z7	X8	Y8	Z8	X9	Y9	Z9	X10	Y10	Z10	X11	Y11	Z11	X12	Y12	Z12	X13	Y13	Z13	X14	Y14	Z14	X15	Y15	Z15	X16	Y16	Z16	X17	Y17	Z17	X18	Y18	Z18	X19	Y19	Z19	X20	Y20	Z20	X21	Y21	Z21	
0	0.0	-0.19632066974869838	1.9049450462565751	-0.5595019207979967	-0.22675185080442173	1.8879813237519634	-0.561233515893243	-0.2034817385800054	1.7229357052440533	-0.4996046349070298	-0.18799638464492216	1.574918696081722	-0.45683445056626004							-0.17193799763247122	1.5786543563582116	-0.4250234756094509	-0.1774045127300778	1.9185807292676043	-0.6161585836035054	-0.13473096872617188	1.7151001839064701	-0.5891891170106184	-0.14065203810049534	1.56357704786816	-0.6032320953369513	-0.21645084812519932	1.5400058856613557	-0.5956576518079436	-0.17690930231162583	1.5218247295285896	-0.6338202677410792	-0.11248976458859486	1.5602725806348259	-0.6072492170480859	-0.20043796364491537	2.0612466319717284	-0.5449930222783604	-0.2168416115629588	2.1134064266091483	-0.5885080177377146	-0.19655520469233806	2.047262594567931	-0.4771488369836515	-0.18190905421528764	1.9537129154670883	-0.47411493946759514	-0.21525988535587984	1.8729581729977203	-0.4262579131100069	-0.15958462728454528	2.0631448238474066	-0.6538435780727055	-1.5727851842888152	1.8765466771243473	0.8797583770623237	-0.14672223291424819	1.8851437826374404	-0.6781476722707729
1	0.03333333333333333	-0.19606618920642718	1.9020833455328612	-0.5590349790200528	-0.22467905395619475	1.8863948270684672	-0.5544302173976241	-0.2025942644235098	1.7232937551196594	-0.496471680002798	-0.18856061606571053	1.5752125117603235	-0.45595027173701735							-0.17326779900302092	1.5775644194758522	-0.42770685013246534	-0.17731426324042598	1.9146401702914142	-0.615741835781577	-0.13745914879702884	1.7163678040413612	-0.5903786649389037	-0.14246016016618465	1.5650127823440507	-0.6015421303539007	-0.2142681814544172	1.5401914840989852	-0.5978265723175809	-0.17673752842213591	1.5244864141494865	-0.6341899420760478	-0.1163467879967548	1.561207674396136	-0.6032700332058339	-0.19846120460541572	2.060076203521094	-0.5467427391032693	-0.21682085774380536	2.1133868896575176	-0.5885198529853274	-0.19650236092583348	2.0472191232232384	-0.47723680334578317	-0.18382169872626308	1.9536085812531296	-0.4719719344146179	-0.2154836622644116	1.8732463305713447	-0.42635019233252175	-0.1595217908154157	2.0620674939142347	-0.6535147031935429	-1.570589350983777	1.876583734750724	0.876095326274757	-0.14672223291424819	1.8851437826374404	-0.6781476722707729
2	0.06666666666666667	-0.19581170866415598	1.8992216448091472	-0.558568037242109	-0.22260625710796778	1.884808330384971	-0.5476269189020051	-0.2017067902670142	1.7236518049952656	-0.49333872509856624	-0.1891248474864989	1.575506327438925	-0.45506609290777467							-0.1745976003735706	1.5764744825934929	-0.43039022465547977	-0.17722401375077418	1.9106996113152241	-0.6153250879596487	-0.1401873288678858	1.7176354241762524	-0.591568212867189	-0.14426828223187396	1.5664485168199414	-0.5998521653708501	-0.21208551478363508	1.5403770825366148	-0.5999954928272181	-0.176565754532646	1.5271480987703834	-0.6345596164110164	-0.12020381140491473	1.5621427681574462	-0.599290849363582	-0.19648444556591607	2.05890577507046	-0.5484924559281782	-0.2168001039246519	2.113367352705887	-0.5885316882329402	-0.1964495171593289	2.047175651878546	-0.4773247697079148	-0.18573434323723853	1.953504247039171	-0.4698289293616406	-0.21570743917294335	1.8735344881449691	-0.4264424715550366	-0.15945895434628612	2.060990163981063	-0.6531858283143802	-1.568393517678739	1.8766207923771008	0.8724322754871902	-0.14672223291424819	1.8851437826374404	-0.6781476722707729
3	0.1	-0.19555722812188478	1.8963599440854333	-0.5581010954641652	-0.2205334602597408	1.8832218337014748	-0.5408236204063861	-0.20081931611051862	1.7240098548708718	-0.4902057701943345	-0.18968907890728728	1.5758001431175264	-0.454181914078532							-0.1759274017441203	1.5753845457111335	-0.4330735991784942	-0.17713376426112237	1.906759052339034	-0.6149083401377203	-0.14291550893874275	1.7189030443111435	-0.5927577607954743	-0.14607640429756327	1.567884251295832	-0.5981622003877994	-0.20990284811285295	1.5405626809742443	-0.6021644133368553	-0.1763939806431561	1.5298097833912803	-0.634929290745985	-0.12406083481307467	1.5630778619187564	-0.5953116655213301	-0.19450768652641642	2.057735346619826	-0.5502421727530871	-0.21677935010549845	2.1133478157542562	-0.588543523480553	-0.19639667339282432	2.0471321805338536	-0.4774127360700465	-0.18764698774821398	1.9533999128252124	-0.46768592430866335	-0.2159312160814751	1.8738226457185936	-0.4265347507775515	-0.15939611787715655	2.059912834047891	-0.6528569534352175	-1.5661976843737009	1.8766578500034774	0.8687692246996234	-0.14672223291424819	1.8851437826374404	-0.6781476722707729
4	0.13333333333333333	-0.19530274757961358	1.8934982433617193	-0.5576341536862214	-0.21846066341151382	1.8816353370179786	-0.5340203219107672	-0.19993184195402303	1.724367904746478	-0.4870728152901027	-0.19025331032807566	1.5760939587961278	-0.4532977352492893							-0.17725720311467	1.5742946088287741	-0.4357569737015086	-0.17704351477147057	1.902818493362844	-0.614491592315792	-0.1456436890095997	1.7201706644460346	-0.5939473087237596	-0.14788452636325258	1.5693199857717226	-0.5964722354047488	-0.20772018144207083	1.5407482794118739	-0.6043333338464926	-0.17622220675366618	1.5324714680121772	-0.6352989650809536	-0.1279178582212346	1.5640129556800666	-0.5913324816790781	-0.19253092748691678	2.0565649181691916	-0.5519918895779959	-0.216758596286345	2.1133282788026255	-0.5885553587281659	-0.19634382962631974	2.047088709189161	-0.4775007024321781	-0.18955963225918943	1.9532955786112538	-0.4655429192556861	-0.21615499299000687	1.874110803292218	-0.42662703000006635	-0.15933328140802697	2.058835504114719	-0.6525280785560549	-1.5640018510686626	1.876694907629854	0.8651061739120566	-0.14672223291424819	1.8851437826374404	-0.6781476722707729
5	0.16666666666666666	-0.19504826703734238	1.8906365426380054	-0.5571672119082776	-0.21638786656328685	1.8800488403344824	-0.5272170234151483	-0.19904436779752743	1.7247259546220841	-0.48393986038587095	-0.19081754174886403	1.5763877744747292	-0.4524135564200466							-0.1785870044852197	1.5732046719464148	-0.43844034822452305	-0.17695326528181876	1.898877934386654	-0.6140748444938636	-0.14837186908045666	1.7214382845809257	-0.5951368566520449	-0.1496926484289419	1.5707557202476132	-0.5947822704216982	-0.2055375147712887	1.5409338778495034	-0.6065022543561298	-0.17605043286417627	1.535133152633074	-0.6356686394159222	-0.13177488162939455	1.5649480494413768	-0.5873532978368262	-0.19055416844741713	2.0553944897185574	-0.5537416064029048	-0.21673784246719155	2.113308741850995	-0.5885671939757787	-0.19629098585981516	2.047045237844469	-0.4775886687943098	-0.19147227677016487	1.9531912443972952	-0.4633999142027088	-0.21637876989853863	1.8743989608658425	-0.4267193092225812	-0.1592704449388974	2.057758174181547	-0.6521992036768922	-1.5618060177636246	1.8767319652562306	0.8614431231244897	-0.14672223291424819	1.8851437826374404	-0.6781476722707729
6	0.2	-0.19479378649507118	1.8877748419142915	-0.5567002701303337	-0.21431506971505987	1.8784623436509862	-0.5204137249195293	-0.19815689364103184	1.7250840044976903	-0.4808069054816392	-0.1913817731696524	1.5766815901533306	-0.4515293775908039							-0.17991680585576939	1.5721147350640554	-0.4411237227475375	-0.17686301579216696	1.894937375410464	-0.6136580966719353	-0.15110004915131361	1.7227059047158169	-0.5963264045803301	-0.1515007704946312	1.5721914547235039	-0.5930923054386475	-0.20335484810050658	1.541119476287133	-0.608671174865767	-0.17587865897468635	1.537794837253971	-0.6360383137508908	-0.13563190503755448	1.565883143202687	-0.5833741139945743	-0.18857740940791748	2.0542240612679232	-0.5554913232278137	-0.2167170886480381	2.113289204899364	-0.5885790292233916	-0.19623814209331059	2.0470017664997764	-0.47767663515644143	-0.19338492128114032	1.9530869101833366	-0.46125690914973155	-0.2166025468070704	1.874687118439467	-0.4268115884450961	-0.1592076084697678	2.0566808442483753	-0.6518703287977295	-1.5596101844585866	1.8767690228826073	0.8577800723369229	-0.14672223291424819	1.8851437826374404	-0.6781476722707729
7	0.23333333333333334	-0.19453930595279997	1.8849131411905775	-0.5562333283523899	-0.2122422728668329	1.87687584696749	-0.5136104264239103	-0.19726941948453625	1.7254420543732965	-0.4776739505774074	-0.19194600459044078	1.576975405831932	-0.4506451987615612							-0.18124660722631908	1.571024798181696	-0.4438070972705519	-0.17677276630251515	1.8909968164342739	-0.6132413488500069	-0.15382822922217057	1.723973524850708	-0.5975159525086154	-0.15330889256032051	1.5736271891993945	-0.5914023404555969	-0.20117218142972446	1.5413050747247625	-0.6108400953754043	-0.17570688508519644	1.5404565218748678	-0.6364079880858594	-0.13948892844571442	1.5668182369639971	-0.5793949301523224	-0.18660065036841783	2.053053632817289	-0.5572410400527226	-0.21669633482888465	2.1132696679477334	-0.5885908644710044	-0.196185298326806	2.046958295155084	-0.4777646015185731	-0.19529756579211577	1.952982575969378	-0.4591139040967543	-0.21682632371560215	1.8749752760130913	-0.42690386766761096	-0.15914477200063823	2.0556035143152034	-0.6515414539185669	-1.5574143511535483	1.8768060805089841	0.8541170215493561	-0.14672223291424819	1.8851437826374404	-0.6781476722707729
8	0.26666666666666666	-0.19428482541052877	1.8820514404668636	-0.5557663865744461	-0.21016947601860592	1.8752893502839938	-0.5068071279282914	-0.19638194532804065	1.7258001042489026	-0.47454099567317565	-0.19251023601122916	1.5772692215105335	-0.44976101993231854							-0.18257640859686877	1.5699348612993367	-0.4464904717935663	-0.17668251681286334	1.8870562574580838	-0.6128246010280786	-0.15655640929302753	1.725241144985599	-0.5987055004369007	-0.15511701462600982	1.575062923675285	-0.5897123754725463	-0.19898951475894233	1.541490673162392	-0.6130090158850415	-0.17553511119570653	1.5431182064957647	-0.636777662420828	-0.14334595185387436	1.5677533307253073	-0.5754157463100704	-0.18462389132891818	2.051883204366655	-0.5589907568776314	-0.2166755810097312	2.1132501309961027	-0.5886026997186172	-0.19613245456030143	2.0469148238103916	-0.47785256788070474	-0.19721021030309122	1.9528782417554194	-0.456970899043777	-0.2170501006241339	1.8752634335867158	-0.4269961468901258	-0.15908193553150865	2.0545261843820315	-0.6512125790394042	-1.5552185178485103	1.8768431381353607	0.8504539707617893	-0.14672223291424819	1.8851437826374404	-0.6781476722707729
9	0.3	-0.19403034486825757	1.8791897397431496	-0.5552994447965023	-0.20809667917037894	1.8737028536004976	-0.5000038294326725	-0.19549447117154506	1.7261581541245088	-0.4714080407689439	-0.19307446743201753	1.577563037189135	-0.44887684110307585							-0.18390620996741847	1.5688449244169773	-0.44917384631658075	-0.17659226732321154	1.8831156984818938	-0.6124078532061502	-0.15928458936388448	1.7265087651204902	-0.599895048365186	-0.15692513669169914	1.5764986581511757	-0.5880224104894957	-0.1968068480881602	1.5416762716000216	-0.6151779363946788	-0.17536333730621662	1.5457798911166616	-0.6371473367557966	-0.1472029752620343	1.5686884244866175	-0.5714365624678185	-0.18264713228941853	2.0507127759160206	-0.5607404737025403	-0.21665482719057774	2.113230594044472	-0.5886145349662301	-0.19607961079379685	2.046871352465699	-0.4779405342428364	-0.19912285481406666	1.9527739075414607	-0.45482789399079976	-0.21727387753266567	1.8755515911603402	-0.4270884261126407	-0.15901909906237907	2.0534488544488596	-0.6508837041602415	-1.5530226845434723	1.8768801957617374	0.8467909199742225	-0.14672223291424819	1.8851437826374404	-0.6781476722707729
